<mxfile host="app.diagrams.net" modified="2022-08-17T06:59:33.592Z" agent="5.0 (Windows NT 10.0; Win64; x64) AppleWebKit/537.36 (KHTML, like Gecko) Chrome/104.0.5112.81 Safari/537.36 Edg/104.0.1293.54" etag="cvj_-eS_kmKPfztRSmYY" version="20.2.3" type="github">
  <diagram id="OZgTTzMIZbF1CK1Bnk2v" name="第 1 页">
    <mxGraphModel dx="1865" dy="579" grid="1" gridSize="10" guides="1" tooltips="1" connect="1" arrows="1" fold="1" page="1" pageScale="1" pageWidth="827" pageHeight="1169" math="0" shadow="0">
      <root>
        <mxCell id="0" />
        <mxCell id="1" parent="0" />
        <mxCell id="5_ovZfvBjrPSnjW51LRR-24" value="" style="rounded=0;whiteSpace=wrap;html=1;fontSize=18;fontColor=#FF0000;dashed=1;fillColor=none;" parent="1" vertex="1">
          <mxGeometry x="120" y="140" width="320" height="360" as="geometry" />
        </mxCell>
        <mxCell id="5_ovZfvBjrPSnjW51LRR-1" value="&lt;font style=&quot;font-size: 18px;&quot;&gt;savevm&lt;/font&gt;" style="rounded=1;whiteSpace=wrap;html=1;" parent="1" vertex="1">
          <mxGeometry x="120" y="80" width="120" height="40" as="geometry" />
        </mxCell>
        <mxCell id="5_ovZfvBjrPSnjW51LRR-2" value="migration" style="rounded=1;whiteSpace=wrap;html=1;fontSize=18;" parent="1" vertex="1">
          <mxGeometry x="320" y="80" width="120" height="40" as="geometry" />
        </mxCell>
        <mxCell id="GFPBZxwAyZQfA2ua5w6D-5" style="edgeStyle=orthogonalEdgeStyle;rounded=0;orthogonalLoop=1;jettySize=auto;html=1;exitX=0.5;exitY=1;exitDx=0;exitDy=0;entryX=1;entryY=0.25;entryDx=0;entryDy=0;fontSize=18;" parent="1" source="5_ovZfvBjrPSnjW51LRR-3" target="GFPBZxwAyZQfA2ua5w6D-4" edge="1">
          <mxGeometry relative="1" as="geometry">
            <Array as="points">
              <mxPoint x="280" y="210" />
            </Array>
          </mxGeometry>
        </mxCell>
        <mxCell id="5_ovZfvBjrPSnjW51LRR-3" value="qemu savevm header" style="rounded=1;whiteSpace=wrap;html=1;fontSize=18;" parent="1" vertex="1">
          <mxGeometry x="180" y="160" width="200" height="40" as="geometry" />
        </mxCell>
        <mxCell id="GFPBZxwAyZQfA2ua5w6D-2" style="edgeStyle=orthogonalEdgeStyle;rounded=0;orthogonalLoop=1;jettySize=auto;html=1;exitX=0.5;exitY=1;exitDx=0;exitDy=0;entryX=0.5;entryY=0;entryDx=0;entryDy=0;fontSize=18;" parent="1" source="5_ovZfvBjrPSnjW51LRR-4" target="GFPBZxwAyZQfA2ua5w6D-1" edge="1">
          <mxGeometry relative="1" as="geometry" />
        </mxCell>
        <mxCell id="5_ovZfvBjrPSnjW51LRR-4" value="Global Unique MigrationState *s" style="rounded=1;whiteSpace=wrap;html=1;fontSize=18;" parent="1" vertex="1">
          <mxGeometry x="480" y="260" width="200" height="80" as="geometry" />
        </mxCell>
        <mxCell id="5_ovZfvBjrPSnjW51LRR-5" value="qemu savevm setup" style="rounded=1;whiteSpace=wrap;html=1;fontSize=18;" parent="1" vertex="1">
          <mxGeometry x="180" y="240" width="200" height="40" as="geometry" />
        </mxCell>
        <mxCell id="5_ovZfvBjrPSnjW51LRR-6" value="qemu savevm live iterate" style="rounded=1;whiteSpace=wrap;html=1;fontSize=18;" parent="1" vertex="1">
          <mxGeometry x="160" y="320" width="240" height="40" as="geometry" />
        </mxCell>
        <mxCell id="5_ovZfvBjrPSnjW51LRR-7" value="qemu savevm vmsd" style="rounded=1;whiteSpace=wrap;html=1;fontSize=18;" parent="1" vertex="1">
          <mxGeometry x="180" y="400" width="200" height="40" as="geometry" />
        </mxCell>
        <mxCell id="5_ovZfvBjrPSnjW51LRR-8" value="" style="endArrow=classic;html=1;rounded=0;fontSize=18;entryX=0.5;entryY=0;entryDx=0;entryDy=0;" parent="1" target="5_ovZfvBjrPSnjW51LRR-3" edge="1">
          <mxGeometry width="50" height="50" relative="1" as="geometry">
            <mxPoint x="180" y="120" as="sourcePoint" />
            <mxPoint x="230" y="70" as="targetPoint" />
          </mxGeometry>
        </mxCell>
        <mxCell id="5_ovZfvBjrPSnjW51LRR-9" value="" style="endArrow=classic;html=1;rounded=0;fontSize=18;entryX=0.5;entryY=0;entryDx=0;entryDy=0;" parent="1" target="5_ovZfvBjrPSnjW51LRR-3" edge="1">
          <mxGeometry width="50" height="50" relative="1" as="geometry">
            <mxPoint x="380" y="120" as="sourcePoint" />
            <mxPoint x="390" y="130" as="targetPoint" />
          </mxGeometry>
        </mxCell>
        <mxCell id="5_ovZfvBjrPSnjW51LRR-14" value="snapshots" style="rounded=1;whiteSpace=wrap;html=1;fontSize=18;" parent="1" vertex="1">
          <mxGeometry x="120" y="520" width="120" height="40" as="geometry" />
        </mxCell>
        <mxCell id="5_ovZfvBjrPSnjW51LRR-15" value="dst VM" style="rounded=1;whiteSpace=wrap;html=1;fontSize=18;" parent="1" vertex="1">
          <mxGeometry x="320" y="520" width="120" height="40" as="geometry" />
        </mxCell>
        <mxCell id="5_ovZfvBjrPSnjW51LRR-19" value="" style="curved=1;endArrow=classic;html=1;rounded=0;fontSize=18;entryX=0;entryY=0.25;entryDx=0;entryDy=0;dashed=1;" parent="1" target="5_ovZfvBjrPSnjW51LRR-4" edge="1">
          <mxGeometry width="50" height="50" relative="1" as="geometry">
            <mxPoint x="380" y="260" as="sourcePoint" />
            <mxPoint x="430" y="210" as="targetPoint" />
            <Array as="points">
              <mxPoint x="450" y="260" />
            </Array>
          </mxGeometry>
        </mxCell>
        <mxCell id="5_ovZfvBjrPSnjW51LRR-20" value="" style="curved=1;endArrow=classic;html=1;rounded=0;fontSize=18;entryX=-0.002;entryY=0.638;entryDx=0;entryDy=0;entryPerimeter=0;dashed=1;" parent="1" target="5_ovZfvBjrPSnjW51LRR-4" edge="1">
          <mxGeometry width="50" height="50" relative="1" as="geometry">
            <mxPoint x="400" y="340" as="sourcePoint" />
            <mxPoint x="450" y="290" as="targetPoint" />
            <Array as="points">
              <mxPoint x="430" y="340" />
            </Array>
          </mxGeometry>
        </mxCell>
        <mxCell id="5_ovZfvBjrPSnjW51LRR-21" value="" style="curved=1;endArrow=classic;html=1;rounded=0;fontSize=18;entryX=0;entryY=1;entryDx=0;entryDy=0;dashed=1;" parent="1" target="5_ovZfvBjrPSnjW51LRR-4" edge="1">
          <mxGeometry width="50" height="50" relative="1" as="geometry">
            <mxPoint x="380" y="420" as="sourcePoint" />
            <mxPoint x="430" y="370" as="targetPoint" />
            <Array as="points">
              <mxPoint x="410" y="410" />
              <mxPoint x="440" y="390" />
            </Array>
          </mxGeometry>
        </mxCell>
        <mxCell id="5_ovZfvBjrPSnjW51LRR-22" value="" style="curved=1;endArrow=classic;html=1;rounded=0;fontSize=18;entryX=0;entryY=0;entryDx=0;entryDy=0;dashed=1;" parent="1" target="5_ovZfvBjrPSnjW51LRR-4" edge="1">
          <mxGeometry width="50" height="50" relative="1" as="geometry">
            <mxPoint x="380" y="180" as="sourcePoint" />
            <mxPoint x="430" y="130" as="targetPoint" />
            <Array as="points">
              <mxPoint x="440" y="180" />
            </Array>
          </mxGeometry>
        </mxCell>
        <mxCell id="5_ovZfvBjrPSnjW51LRR-25" value="&lt;font color=&quot;#000000&quot;&gt;migration process&lt;/font&gt;" style="text;html=1;strokeColor=none;fillColor=none;align=center;verticalAlign=middle;whiteSpace=wrap;rounded=0;dashed=1;fontSize=18;fontColor=#FF0000;" parent="1" vertex="1">
          <mxGeometry x="480" y="100" width="160" height="30" as="geometry" />
        </mxCell>
        <mxCell id="5_ovZfvBjrPSnjW51LRR-26" value="" style="endArrow=classic;html=1;rounded=0;fontSize=18;fontColor=#000000;entryX=1;entryY=0;entryDx=0;entryDy=0;exitX=0;exitY=0.5;exitDx=0;exitDy=0;" parent="1" source="5_ovZfvBjrPSnjW51LRR-25" target="5_ovZfvBjrPSnjW51LRR-24" edge="1">
          <mxGeometry width="50" height="50" relative="1" as="geometry">
            <mxPoint x="480" y="130" as="sourcePoint" />
            <mxPoint x="530" y="80" as="targetPoint" />
          </mxGeometry>
        </mxCell>
        <mxCell id="GFPBZxwAyZQfA2ua5w6D-1" value="&lt;font style=&quot;font-size: 18px;&quot;&gt;QEMUFile *backup_file&lt;/font&gt;" style="rounded=1;whiteSpace=wrap;html=1;fillColor=#E6FFCC;" parent="1" vertex="1">
          <mxGeometry x="520" y="370" width="120" height="60" as="geometry" />
        </mxCell>
        <mxCell id="GFPBZxwAyZQfA2ua5w6D-6" style="edgeStyle=orthogonalEdgeStyle;rounded=0;orthogonalLoop=1;jettySize=auto;html=1;exitX=1;exitY=0.75;exitDx=0;exitDy=0;entryX=0.5;entryY=0;entryDx=0;entryDy=0;fontSize=18;" parent="1" edge="1">
          <mxGeometry relative="1" as="geometry">
            <mxPoint x="90" y="230" as="sourcePoint" />
            <mxPoint x="280" y="240" as="targetPoint" />
            <Array as="points">
              <mxPoint x="280" y="230" />
            </Array>
          </mxGeometry>
        </mxCell>
        <mxCell id="GFPBZxwAyZQfA2ua5w6D-4" value="backup header" style="rounded=1;whiteSpace=wrap;html=1;fontSize=18;fillColor=#E6FFCC;" parent="1" vertex="1">
          <mxGeometry x="-110" y="200" width="200" height="40" as="geometry" />
        </mxCell>
        <mxCell id="GFPBZxwAyZQfA2ua5w6D-7" value="backup setup" style="rounded=1;whiteSpace=wrap;html=1;fontSize=18;fillColor=#E6FFCC;" parent="1" vertex="1">
          <mxGeometry x="-110" y="280" width="200" height="40" as="geometry" />
        </mxCell>
        <mxCell id="GFPBZxwAyZQfA2ua5w6D-8" style="edgeStyle=orthogonalEdgeStyle;rounded=0;orthogonalLoop=1;jettySize=auto;html=1;exitX=0.5;exitY=1;exitDx=0;exitDy=0;entryX=1;entryY=0.25;entryDx=0;entryDy=0;fontSize=18;" parent="1" edge="1">
          <mxGeometry relative="1" as="geometry">
            <mxPoint x="280" y="280" as="sourcePoint" />
            <mxPoint x="90" y="290" as="targetPoint" />
            <Array as="points">
              <mxPoint x="280" y="290" />
            </Array>
          </mxGeometry>
        </mxCell>
        <mxCell id="GFPBZxwAyZQfA2ua5w6D-9" style="edgeStyle=orthogonalEdgeStyle;rounded=0;orthogonalLoop=1;jettySize=auto;html=1;exitX=1;exitY=0.75;exitDx=0;exitDy=0;entryX=0.5;entryY=0;entryDx=0;entryDy=0;fontSize=18;" parent="1" edge="1">
          <mxGeometry relative="1" as="geometry">
            <mxPoint x="90" y="310" as="sourcePoint" />
            <mxPoint x="280" y="320" as="targetPoint" />
            <Array as="points">
              <mxPoint x="280" y="310" />
            </Array>
          </mxGeometry>
        </mxCell>
        <mxCell id="GFPBZxwAyZQfA2ua5w6D-10" value="backup precopy pages" style="rounded=1;whiteSpace=wrap;html=1;fontSize=18;" parent="1" vertex="1">
          <mxGeometry x="-110" y="360" width="200" height="40" as="geometry" />
        </mxCell>
        <mxCell id="GFPBZxwAyZQfA2ua5w6D-11" style="edgeStyle=orthogonalEdgeStyle;rounded=0;orthogonalLoop=1;jettySize=auto;html=1;exitX=0.5;exitY=1;exitDx=0;exitDy=0;entryX=1;entryY=0.25;entryDx=0;entryDy=0;fontSize=18;" parent="1" edge="1">
          <mxGeometry relative="1" as="geometry">
            <mxPoint x="280" y="360" as="sourcePoint" />
            <mxPoint x="90" y="370" as="targetPoint" />
            <Array as="points">
              <mxPoint x="280" y="370" />
            </Array>
          </mxGeometry>
        </mxCell>
        <mxCell id="GFPBZxwAyZQfA2ua5w6D-12" style="edgeStyle=orthogonalEdgeStyle;rounded=0;orthogonalLoop=1;jettySize=auto;html=1;exitX=1;exitY=0.75;exitDx=0;exitDy=0;entryX=0.5;entryY=0;entryDx=0;entryDy=0;fontSize=18;" parent="1" edge="1">
          <mxGeometry relative="1" as="geometry">
            <mxPoint x="90" y="390" as="sourcePoint" />
            <mxPoint x="280" y="400" as="targetPoint" />
            <Array as="points">
              <mxPoint x="280" y="390" />
            </Array>
          </mxGeometry>
        </mxCell>
        <mxCell id="Wa7YZDis3gOsCpSppj7i-4" style="edgeStyle=orthogonalEdgeStyle;rounded=0;orthogonalLoop=1;jettySize=auto;html=1;exitX=1;exitY=0.75;exitDx=0;exitDy=0;entryX=0.5;entryY=0;entryDx=0;entryDy=0;fontSize=18;" edge="1" parent="1" source="Wa7YZDis3gOsCpSppj7i-1" target="5_ovZfvBjrPSnjW51LRR-14">
          <mxGeometry relative="1" as="geometry" />
        </mxCell>
        <mxCell id="Wa7YZDis3gOsCpSppj7i-5" style="edgeStyle=orthogonalEdgeStyle;rounded=0;orthogonalLoop=1;jettySize=auto;html=1;exitX=1;exitY=0.75;exitDx=0;exitDy=0;entryX=0.5;entryY=0;entryDx=0;entryDy=0;fontSize=18;" edge="1" parent="1" source="Wa7YZDis3gOsCpSppj7i-1" target="5_ovZfvBjrPSnjW51LRR-15">
          <mxGeometry relative="1" as="geometry" />
        </mxCell>
        <mxCell id="Wa7YZDis3gOsCpSppj7i-1" value="backup dirty pages" style="rounded=1;whiteSpace=wrap;html=1;fontSize=18;" vertex="1" parent="1">
          <mxGeometry x="-110" y="440" width="200" height="40" as="geometry" />
        </mxCell>
        <mxCell id="Wa7YZDis3gOsCpSppj7i-2" style="edgeStyle=orthogonalEdgeStyle;rounded=0;orthogonalLoop=1;jettySize=auto;html=1;exitX=0.5;exitY=1;exitDx=0;exitDy=0;entryX=1;entryY=0.25;entryDx=0;entryDy=0;fontSize=18;" edge="1" parent="1">
          <mxGeometry relative="1" as="geometry">
            <mxPoint x="280" y="440" as="sourcePoint" />
            <mxPoint x="90" y="450" as="targetPoint" />
            <Array as="points">
              <mxPoint x="280" y="450" />
            </Array>
          </mxGeometry>
        </mxCell>
        <mxCell id="Wa7YZDis3gOsCpSppj7i-6" value="" style="shape=image;html=1;verticalAlign=top;verticalLabelPosition=bottom;labelBackgroundColor=#ffffff;imageAspect=0;aspect=fixed;image=https://cdn3.iconfinder.com/data/icons/flat-actions-icons-9/512/Tick_Mark-128.png;fontSize=18;fillColor=#E6FFCC;" vertex="1" parent="1">
          <mxGeometry x="-110" y="192" width="48" height="48" as="geometry" />
        </mxCell>
        <mxCell id="Wa7YZDis3gOsCpSppj7i-7" value="" style="shape=image;html=1;verticalAlign=top;verticalLabelPosition=bottom;labelBackgroundColor=#ffffff;imageAspect=0;aspect=fixed;image=https://cdn3.iconfinder.com/data/icons/flat-actions-icons-9/512/Tick_Mark-128.png;fontSize=18;fillColor=#E6FFCC;" vertex="1" parent="1">
          <mxGeometry x="-110" y="272" width="48" height="48" as="geometry" />
        </mxCell>
      </root>
    </mxGraphModel>
  </diagram>
</mxfile>
